<svg xmlns="http://www.w3.org/2000/svg" xmlns:xlink="http://www.w3.org/1999/xlink" id="Layer_1" x="0px" y="0px" viewBox="0 0 100 50" style="enable-background:new 0 0 100 50;" xml:space="preserve">
<style type="text/css">
	.st0{fill:#FAE5BC;}
	.st1{fill:#BC2638;}
	.st2{fill:#F6F7D4;}
</style>
<g>
	<path class="st0" d="M41.7,26.2c0,0.1,0.1,0.2,0.1,0.2c0,0.1-0.1,0.2-0.2,0.2c-0.2,0.1-0.3,0.3-0.4,0.6C41,27.5,41,27.8,40.9,28   l0,0c-0.1,0.3-0.1,0.6-0.1,0.8c0,0.2-0.1,0.3-0.1,0.4l0,0.2c0,0.7,0,1.3,0.1,2l0.1,1.1c0,0.2,0,0.3,0.1,0.5l0,0.5   c0,0.2,0.1,0.3,0.1,0.5c0,0.2,0,0.4,0,0.5v0.6c0,0.1,0,0.3,0,0.4c0,0.2-0.1,0.3-0.3,0.4c-0.2,0.1-0.4,0.1-0.7,0.1   c-0.2,0-0.3,0-0.5,0h-0.3c-0.1,0-0.3,0-0.4-0.1c-0.2,0-0.3,0-0.4-0.1c-0.1-0.1,0-0.2,0.1-0.3c-0.1-0.2-0.1-0.4-0.1-0.6v-1.4   c0-0.6,0-1.3,0-1.9l0-1.1v0.1l0-1.2c0-0.4,0-0.9,0-1.3l0-0.4c0-0.1-0.1-0.1-0.1-0.2c0-0.1-0.1-0.1-0.1-0.2l-0.2-0.5   c-0.1-0.2-0.1-0.3-0.2-0.5c0-0.1-0.1-0.2-0.1-0.3c0-0.1,0.1-0.1,0.2-0.1c-0.1,0,0,0,0-0.1c0,0,0-0.1,0.1-0.1   c0.1-0.2,0.2-0.3,0.2-0.5l0.1-0.1l0-1c0-0.2,0-0.4,0-0.6l0-0.6c0-0.2,0-0.4,0-0.6c0-0.2,0-0.3,0.1-0.5c0-0.4,0-0.8,0-1.1   c0-0.1,0-0.3,0-0.4l-0.2,0.5c-0.1,0.3-0.2,0.6-0.2,0.9c0,0.2-0.1,0.8-0.1,1c-0.1,0.4-0.3,1.1-0.4,1.7L37,25c0,0.1-0.1,0.2-0.1,0.3   l0,0.3c0,0.4-0.1,0.8-0.2,1.3l-0.2,0.6l-0.1,0.6l0,0.1l0,0.1c-0.1,0.4-0.2,0.8-0.3,1.3c-0.1,0.4-0.2,0.8-0.3,1.2   c-0.1,0.2-0.1,0.4-0.1,0.7c0,0.2,0,0.4-0.1,0.6c-0.1,0.4-0.2,0.8-0.2,1.2c-0.1,0.4-0.1,0.8-0.2,1.2c0,0.2-0.1,0.4-0.1,0.7v0.3   c0,0.1,0,0.4-0.1,0.5c-0.1,0.1-0.3,0.2-0.5,0.2l-0.1,0.1c-0.1,0.1-0.3,0.1-0.4,0.1l-0.1,0c-0.1,0-0.2,0.1-0.3,0.1l-0.1,0   c-0.1,0-0.1,0-0.1,0c-0.3,0.1-0.4,0.1-0.6,0.1c-0.2-0.1-0.2-0.3-0.3-0.4l-0.2-0.5l0-0.1c-0.1-0.3-0.2-0.7-0.2-1.1   c0-0.4-0.1-0.8-0.2-1.1c-0.2-0.7-0.4-1.5-0.6-2.2c-0.2-0.8-0.3-1.5-0.4-2.3c-0.1-0.4-0.1-0.8-0.1-1.1l-0.2-1.1   c-0.2-0.9-0.4-1.7-0.6-2.6c-0.1-0.4-0.2-0.9-0.2-1.3c-0.1-0.4-0.2-0.9-0.3-1.3c-0.1-0.4-0.2-0.9-0.2-1.3L29.2,20v0.1   c-0.1,0.2,0,0.4,0,0.6c0,0.4-0.1,0.8-0.1,1.1c0,0.4,0,0.7,0.1,1.1c0,0.8,0,1.6,0,2.3l0,0.2l0.1,0.1c0.1,0.2,0.2,0.4,0.3,0.5   c0.1,0.1,0.2,0.3,0.1,0.4c0,0.1-0.1,0.1-0.1,0.2l-0.1,0.3l-0.2,0.6l0,0.1c0,1.1,0,2.1,0,3.2v1.4c0,0.4-0.1,0.9-0.1,1.3   c0,0.2,0,0.4,0,0.7c0,0.2-0.1,0.4-0.1,0.6c0,0.2,0,0.5,0,0.7l0,0.3l0,0c0,0.1,0,0.3-0.1,0.3c-0.1,0.1-0.2,0.2-0.3,0.2l-0.1,0   c-0.1,0-0.2,0-0.2,0c-0.1,0-0.3,0.1-0.4,0.1l-0.1,0c-0.1,0-0.1,0-0.2,0c-0.1,0.1-0.3,0.1-0.4,0.1l-0.4,0.1c-0.1,0-0.1,0-0.2,0   c-0.1,0-0.2,0-0.3-0.1c-0.1-0.1,0-0.2,0-0.3c0-0.1,0-0.2,0.1-0.3l0-0.3c0-0.4,0-0.7,0.1-1.1c0-0.2,0.1-0.4,0.1-0.6l0-0.6   c0-0.4,0-0.8,0.1-1.2c0-0.4,0-0.8,0-1.1l0-1.2l0-0.4c0-0.1-0.1-0.2-0.1-0.4c-0.1-0.3-0.1-0.6-0.2-0.9c-0.1-0.3-0.1-0.5-0.2-0.8   l0-0.1l-0.1-0.1c0,0-0.1-0.1-0.1-0.1l0-0.1c0,0-0.1-0.1-0.1-0.1c0,0-0.1-0.1-0.1-0.1l0-0.1c-0.1-0.1-0.2-0.2-0.1-0.3   c0.1-0.1,0.1-0.1,0.2-0.2c0.2-0.2,0.3-0.5,0.4-0.7l0.3-0.4l0-0.2v-0.2c-0.1-0.8,0-1.7,0-2.5c0-0.2,0-0.4,0-0.6c0-0.2,0-0.4,0-0.7   l0-1.3v-0.6l0-0.3c0-0.1,0-0.1,0-0.2V18c0-0.2,0-0.4,0-0.5l0-0.2l-0.2-0.6c0-0.1,0.1-0.2,0.3-0.2c0.1-0.1,0.1-0.1,0.2-0.1l0.7-0.1   l0.6-0.1c0.4,0,0.9-0.1,1.3-0.1c0.1,0,0.4-0.1,0.4,0.1c0,0.1,0.1,0.2,0.1,0.3c0,0,0.1,0.1,0.1,0.1c0.1,0.1,0.1,0.2,0.1,0.3   c0,0.1,0,0.1,0.1,0.2c0.1,0.1,0.1,0.3,0.1,0.4l0.2,0.8l0.2,0.8c0.1,0.3,0.1,0.6,0.2,0.9c0.1,0.3,0.1,0.6,0.2,0.9   c0.1,0.6,0.3,1.1,0.4,1.7c0.1,0.4,0.1,0.8,0.2,1.3c0.1,0.4,0.2,0.9,0.3,1.3c0.1,0.4,0.1,0.9,0.2,1.4l0.3,1.3   c0.1,0.4,0.2,0.8,0.3,1.1c0.1,0.4,0.2,0.8,0.2,1.3l0.2,1.3c0,0.2,0.1,0.4,0.1,0.7l0,0.2c0.1-0.4,0.2-0.7,0.3-1.1l0-0.2   c0-0.3,0-0.6,0.1-1c0-0.4,0.1-0.8,0.1-1.1c0-0.3,0-0.6,0.1-1c0-0.3,0.1-0.6,0.1-0.9l0.2-1.3c0.1-0.4,0.1-0.9,0.3-1.3   c0.1-0.4,0.2-0.8,0.3-1.3c0.1-0.4,0.2-0.9,0.3-1.3l0.3-0.8c0-0.1,0-0.2,0.1-0.2c0.1-0.3,0.1-0.6,0.2-0.9c0.1-0.2,0.1-0.4,0.2-0.6   c0.1-0.2,0.1-0.4,0.1-0.5c0.1-0.2,0.1-0.4,0.1-0.6c0-0.2,0.1-0.4,0.1-0.6c0-0.1,0.1-0.2,0.1-0.3c0-0.1,0-0.2,0.1-0.2   c0-0.1,0.1-0.2,0.1-0.3v-0.2c0-0.1,0.1-0.2,0.3-0.2c0.1-0.1,0.2-0.1,0.3-0.1h0.1c0,0,0,0,0.1,0c0.1-0.1,0.2-0.1,0.3-0.1   c0.2,0,0.4,0,0.6-0.1c0.4-0.1,0.8-0.1,1.1-0.1c0.2,0,0.3,0,0.5,0c0.2,0,0.3,0.2,0.3,0.3l0,0.1c0.1,0,0.1,0.1,0.1,0.1v0.2l0.1,0.3   c0,0.2,0,0.3,0,0.5c0,0.1,0,0.3,0,0.5c0,0.2,0,0.3,0,0.5l0,0.6c0,0.6,0.1,1.3,0.1,1.9c0.1,0.9,0.1,1.8,0.1,2.8l0,0.1   c0.2,0.2,0.3,0.4,0.3,0.7c0.1,0.1,0.1,0.3,0.1,0.4c0.1,0.1,0.1,0.2,0.2,0.3C41.5,25.8,41.7,26,41.7,26.2L41.7,26.2z M28.6,27   c0.1-0.3,0.1-0.7,0-1.1c-0.1-0.2-0.4-0.5-0.6-0.4c-0.1-0.1-0.3,0-0.3,0.1c-0.1,0.1-0.1,0.2-0.1,0.3l0,0.1c0,0,0,0,0,0.1   c0,0.1,0,0.3,0,0.4c0,0.2,0,0.3,0,0.4c0.1,0.2,0.2,0.4,0.4,0.5C28.2,27.5,28.5,27.3,28.6,27L28.6,27z M40.2,26.6   c0.1-0.2,0.1-0.3,0.1-0.5c0-0.2-0.1-0.3-0.1-0.5c-0.1-0.1-0.1-0.3-0.3-0.3c-0.1,0-0.3,0-0.4,0l0,0c-0.2,0-0.3,0.1-0.4,0.4   c0,0.1,0,0.2,0,0.4c0,0.1,0,0.3,0,0.4c0.1,0.2,0.1,0.5,0.3,0.7c0.2,0.2,0.5,0.2,0.6-0.1l0,0C40.1,26.9,40.1,26.7,40.2,26.6   L40.2,26.6z"></path>
	<path class="st0" d="M46.7,19.9c0.1,0.9,0.1,1.9,0.1,2.8c0,0.9-0.1,1.8-0.1,2.7v0.3l0.1,0c0.3,0.1,0.6,0,0.8,0.1   c0.3,0,0.6,0,0.8,0.1c0.1,0,0.3,0,0.4,0.1c0.1,0,0.1,0,0.2,0c0.1,0,0.1,0,0.1,0l0.1,0c0.1,0,0.2,0.1,0.3,0.2c0,0.1,0,0.1,0,0.2   c0,0.2,0.1,0.4,0.1,0.6l0,0.6c0,0.1-0.2,0.2-0.3,0.3c-0.2,0.1-0.3,0.1-0.5,0.1l-0.2,0l-0.2,0l-0.2,0c0.1,0-0.1,0-0.1,0   c-0.2,0-0.3,0-0.5,0c-0.1,0-0.2,0-0.3,0c-0.2,0-0.5,0-0.7,0l0,0.3l0,1.5c0,0.3,0,0.6,0.1,0.8v-0.1l0,0.7c0,0.2,0,0.5,0,0.7v0.1   l0.1,0.8c0.1,0.4,0.2,0.7,0.2,1.1c0,0.2,0,0.3,0,0.5l0.5,0.1h0.2l0.3,0l1.7,0h0.6c0.1,0,0.2,0,0.3,0l0.1,0l0.1,0   c0.2,0,0.4,0.1,0.3,0.3l0,0.6c0,0.1,0,0.3,0,0.4c0,0.1-0.2,0.2-0.3,0.3L50.8,36c-0.2,0.1-0.3,0.1-0.5,0.2c-0.4,0-0.8,0-1.2,0   l-1.4,0c-0.2,0-0.3,0-0.5,0c0,0-0.2,0-0.1,0l-0.2,0c-0.2,0.1-0.5,0.1-0.8,0c-0.1,0-0.3,0-0.4,0c-0.1,0-0.2-0.1-0.3-0.1   c-0.2,0-0.3-0.1-0.3-0.3c0-0.6-0.1-1.3-0.1-1.9l-0.1-1c0-0.2,0-0.4,0-0.5l-0.1-0.5c-0.1-0.7-0.1-1.4-0.2-2c0-0.4-0.1-0.8-0.1-1.2   c-0.1-0.5-0.3-0.9-0.5-1.3L44,27c-0.1-0.1-0.1-0.2-0.2-0.2c0,0-0.1-0.1-0.2-0.1c-0.1,0-0.1-0.1,0-0.2l0.1-0.3   c0.1-0.2,0.1-0.4,0.2-0.6c0.1-0.2,0.2-0.4,0.4-0.6l0-0.2c0-0.1,0.1-0.3,0.1-0.4l0.1-0.1l0-0.5c0-0.3,0-0.7,0-1l0-0.2   c0-0.3-0.1-0.6-0.1-0.9c0-0.1,0-0.3,0-0.4l0-0.4c0-0.1,0-0.3,0-0.4l0-0.5c0-0.3,0-0.7,0-1c0-0.1,0-0.3,0-0.4c0-0.1,0-0.3,0-0.4   l0-0.2c0-0.1,0-0.1,0-0.2l0-0.1c0-0.1,0-0.1,0-0.2c0.1-0.1,0.2-0.2,0.3-0.2c0.1-0.1,0.3-0.1,0.4-0.1c0.2,0,0.4,0,0.6,0l0.1,0h0.1   c0.5,0,0.9-0.1,1.4-0.1l0.9-0.1c0.3,0,0.5,0,0.8-0.1c0.2,0,0.5,0,0.8,0l0.4,0l0.3,0h0c0.2,0,0.4-0.1,0.5,0.1l0,0c0,0,0.1,0,0.1,0.1   c0.1,0.1,0.1,0.2,0.1,0.3c0,0.1,0,0.3,0,0.4c0,0.1,0,0.3,0,0.5c0,0.1,0,0.3,0,0.4c-0.1,0.1-0.3,0.2-0.4,0.2h-0.1l-0.1,0   c-0.1,0-0.2,0-0.3,0.1l-0.1,0c-0.1,0-0.3,0-0.4,0c-0.2,0-0.3,0-0.5,0l0,0l-0.2,0l-0.1,0l-0.3,0h0C48.6,19,48.4,19,48.1,19   c-0.3,0-0.7,0-1-0.1l0,0L46.9,19l-0.1,0.1l-0.2,0.3L46.7,19.9z M46.1,26c0-0.3,0-0.6-0.2-0.8c-0.2-0.1-0.5-0.2-0.6,0   c0,0.1-0.1,0.1-0.1,0.2c0,0-0.1,0-0.1,0.1c-0.1,0.2-0.2,0.5-0.2,0.7c0,0.2,0.1,0.5,0.4,0.6c0.2,0.1,0.5,0,0.6-0.1   C46.1,26.5,46,26.2,46.1,26L46.1,26z"></path>
	<path class="st0" d="M64,26c0,0,0.1,0.1,0.1,0.2c0,0.1-0.1,0.1-0.2,0.2c-0.2,0.2-0.3,0.4-0.4,0.6c-0.1,0.1-0.2,0.2-0.2,0.3L63,27.6   c-0.1,0.3-0.2,0.5-0.3,0.8c-0.1,0.3-0.2,0.5-0.2,0.8l0,0.2l0,0.6c0,0.2,0,0.3-0.1,0.6c-0.1,0.3,0,0.7-0.1,1c0,0.4,0,0.7-0.1,1.1   c0,0.1,0,0.3,0,0.4l0,0.3c0,0.2,0,0.4,0,0.6c0,0.1,0,0.1,0,0.1c0,0.4,0.1,0.7,0.1,1.2l0,0.2l0,0.1v0.2c0,0.2-0.1,0.3-0.3,0.3   l-0.2,0l-0.3,0l-0.5,0l-0.3,0h-0.1c-0.1,0-0.2,0-0.4,0l-0.1,0c-0.1,0-0.2,0-0.3-0.1c-0.1-0.1-0.1-0.2-0.1-0.3   c0-0.1-0.1-0.2-0.1-0.3c0,0,0-0.1-0.1-0.2L59.6,35c-0.1-0.3-0.2-0.6-0.4-0.9c-0.2-0.3-0.3-0.6-0.4-1c-0.1-0.4-0.3-0.8-0.4-1.2   c-0.1-0.4-0.2-0.8-0.4-1.2c-0.1-0.2-0.2-0.4-0.3-0.6c-0.1-0.2-0.1-0.4-0.1-0.6c-0.1-0.2-0.2-0.4-0.2-0.6c-0.1-0.2-0.2-0.4-0.2-0.5   l-0.4-1.2l-0.2-0.6c-0.1-0.2-0.1-0.4-0.2-0.6c-0.1-0.2-0.1-0.4-0.1-0.7c0-0.2-0.1-0.4-0.1-0.6c0-0.2-0.1-0.3-0.2-0.5v1.2l0.1,0.5   c0,0.4,0.1,0.9,0.1,1.3c0,0.2,0,0.5,0,0.7c0,0.2,0,0.4,0,0.6l0,0.6c0,0.2,0,0.4,0,0.6c0,0.2,0,0.4,0,0.7l0,0.6c0,0.2,0,0.4,0,0.7   l0,0.3c0,0.1,0,0.2,0,0.3c0,0.4,0,0.8-0.1,1.3c0,0.2-0.1,0.4-0.1,0.6c0,0.2,0,0.4,0,0.6c0,0.2,0,0.4-0.1,0.6c0,0.1,0,0.1,0,0.2   l0,0.2c0,0.1,0,0.1,0,0.2c0,0.1-0.1,0.2-0.2,0.2c-0.1,0.1-0.3,0-0.4,0l-0.5,0c-0.2,0-0.5,0-0.7,0h-0.4c-0.1,0-0.2-0.1-0.2-0.2   c0-0.1,0-0.2,0-0.3l0-0.2c0-0.3,0.1-0.6,0.2-0.9c0.1-0.3,0.1-0.6,0.1-0.8c0-0.3,0-0.6,0-0.9c0-0.3,0.1-0.6,0.1-0.9   c0-0.6,0.1-1.3,0-1.9c0-0.3,0-0.6,0-0.9l0-0.5c0-0.1,0-0.2,0-0.2l0-0.2c0-0.1,0-0.3-0.1-0.4c-0.1-0.1-0.1-0.2-0.1-0.3   c0-0.1-0.1-0.2-0.1-0.2c-0.1-0.2-0.2-0.3-0.3-0.5c-0.1-0.1-0.2-0.2-0.3-0.3c-0.1-0.1-0.2-0.2,0-0.3c0.1-0.1,0.2-0.3,0.3-0.5   l0.1-0.2l0.1-0.2c0.1-0.2,0.1-0.4,0.2-0.6c0-0.2,0.1-0.3,0.2-0.5c0-0.1,0.1-0.2,0.1-0.3l0-0.9c0-0.4,0-0.9-0.1-1.3   c-0.1-0.8-0.1-1.7-0.2-2.6c0-0.4,0-0.9,0-1.3c0-0.2,0-0.3,0-0.5l0-0.1l0-0.1c0-0.1,0-0.3,0-0.4c0.1-0.1,0.2-0.1,0.4-0.1l0.5,0   l0.5,0c0.1,0,0.3-0.1,0.4,0c0.2,0,0.2,0.2,0.2,0.4c0,0.1,0,0.2,0,0.3l0,0.1l0,0.2l0.1,0c0.1-0.1,0.2,0,0.2,0.1c0,0.1,0,0.2,0.1,0.3   l0.1,0.3c0.1,0.2,0.2,0.4,0.2,0.6c0.1,0.2,0.1,0.4,0.2,0.6l0.1,0.2l0,0.1l0.1,0.2c0.1,0.2,0.1,0.5,0.2,0.7l0.2,0.6   c0.1,0.4,0.2,0.8,0.4,1.2c0.3,0.8,0.6,1.6,0.8,2.4c0.1,0.4,0.1,0.8,0.2,1.2c0.1,0.4,0.3,0.8,0.4,1.2c0.1,0.3,0.2,0.6,0.3,0.9   l0.2,0.6l0.1,0.4l0,0.1l0,0.1c0.1,0.1,0.1,0.2,0.1,0.3l0,0.1l0.1,0.4c0.1,0.4,0.2,0.9,0.4,1.3l0.1,0.2v-0.1l0-0.6l0-0.6l0-0.2   c0-0.3,0-0.6,0-0.9l0.1-0.4c0-0.1,0-0.3,0-0.4v-0.1l-0.1-0.5c-0.1-0.3-0.1-0.6-0.1-0.8c0-0.1-0.1-0.3-0.1-0.4   C60,26.3,60,26.1,59.9,26c0-0.1-0.1-0.1-0.1-0.2c0,0,0.1-0.1,0.1-0.1l0.2-0.3c0.2-0.2,0.3-0.5,0.4-0.7c0.1-0.1,0.1-0.3,0.1-0.4   c0-0.1,0.1-0.1,0.1-0.2l0-0.2l0-0.5c0-0.1,0-0.3,0-0.4c0-0.2,0.1-0.3,0.1-0.5c0-0.1,0.1-0.3,0.1-0.5c0-0.2,0-0.3,0-0.5   c0-0.3,0.1-0.6,0.1-0.9c0-0.3,0-0.7,0.1-1c0-0.2,0.1-0.3,0.1-0.5c0-0.2,0-0.3,0.1-0.5c0.1-0.3,0.2-0.7,0.2-1c0-0.2,0-0.3,0.1-0.5   l0-0.2c0-0.1,0.1-0.2,0-0.2v0c0-0.1,0.1-0.2,0.2-0.2c0.1,0,0.3,0,0.5,0c0.2,0,0.3,0,0.5,0c0.2,0,0.3,0,0.5,0c0.1,0,0.3,0,0.4,0   c0.1,0,0.2,0.1,0.2,0.2c0,0.1,0,0.2-0.1,0.3c0,0.1,0,0.1,0,0.2c0,0.1,0,0.2,0,0.2l0,0.3c0,0.2,0,0.4,0,0.5l-0.2,1.1   c-0.1,0.4-0.1,0.7-0.1,1.1c0,0.2-0.1,0.4-0.1,0.5c0,0.2,0,0.3,0,0.5c0,0.3,0,0.6-0.1,1c0,0.2-0.1,0.4-0.1,0.6l0,0.2   c0,0.1,0,0.1,0,0.2c0,0.1,0,0.2-0.1,0.3l0,0.1c0.1,0.2,0.1,0.4,0.2,0.6c0.1,0.2,0.2,0.4,0.2,0.6c0,0.2,0.1,0.3,0.2,0.5   C63.7,25.7,63.8,25.8,64,26C64,26,64,26,64,26L64,26z M55.1,26.2c0.1-0.2,0.1-0.3,0.1-0.5c0,0,0-0.1,0-0.1v-0.3   c0-0.3-0.3-0.5-0.5-0.4c-0.3,0.1-0.4,0.4-0.5,0.6c-0.1,0.2,0,0.4,0.1,0.6l0,0.1c0,0.1,0.1,0.1,0.2,0.2c0.1,0.1,0.3,0.1,0.4,0.1   C55,26.4,55.1,26.3,55.1,26.2L55.1,26.2z M62.6,26c0-0.1,0.1-0.4,0-0.5l-0.1-0.1c0-0.1,0-0.2-0.1-0.3c-0.2-0.3-0.7-0.2-0.8,0.1   l0,0.1c-0.1,0.1-0.2,0.3-0.2,0.5c0,0.2,0,0.5,0.2,0.7c0.2,0.2,0.4,0.2,0.6,0l0.1-0.1C62.4,26.5,62.5,26.3,62.6,26L62.6,26z"></path>
	<path class="st0" d="M75,26c0.1,0.1,0,0.2-0.1,0.3c-0.1,0.1-0.1,0.2-0.2,0.3c-0.1,0.3-0.2,0.5-0.3,0.7c-0.1,0.3-0.1,0.5-0.2,0.8   c0,0.2,0,0.4-0.1,0.6c0,0.2-0.1,0.4-0.1,0.6l-0.1,0.4v0.3c0,0.4,0,0.9,0,1.3c0,0.4,0,0.8-0.1,1.3c-0.1,0.3,0,0.6-0.1,0.9   c0,0.4-0.2,0.7-0.4,1c-0.3,0.3-0.6,0.6-0.9,0.8c-0.4,0.2-0.9,0.5-1.3,0.6c-0.5,0.1-1,0.1-1.4,0.1c-0.2,0-0.4,0-0.6,0   c-0.1,0-0.2,0-0.4,0c0,0-0.1,0-0.1,0c-0.1,0-0.3,0-0.4-0.1l-0.1,0c0,0-0.2-0.1-0.1-0.1c-0.2-0.1-0.3-0.1-0.5-0.3   c-0.2-0.2-0.4-0.3-0.5-0.5c-0.1,0-0.1-0.1-0.1-0.1c0-0.1-0.1-0.1-0.1-0.1c-0.2-0.2-0.3-0.3-0.3-0.6v-0.1c-0.1-0.2-0.1-0.5-0.2-0.7   l-0.2-1.2l-0.2-1.3c0-0.2,0-0.4-0.1-0.6c0-0.2-0.1-0.4-0.1-0.6c-0.1-0.4,0-0.8,0-1.1c0-0.2,0.1-0.4,0.1-0.5l0-0.2   c-0.1-0.2-0.1-0.3-0.2-0.5c-0.1-0.2-0.2-0.3-0.3-0.5c-0.1-0.1-0.1-0.3-0.2-0.4c-0.1-0.1-0.2-0.3-0.3-0.4c0-0.1,0-0.1,0-0.1   c0.1,0,0.1-0.1,0.1-0.2l0.1-0.2c0.1-0.2,0.2-0.3,0.2-0.5c0.1-0.2,0.1-0.4,0.2-0.6l0-0.2l0-0.4c0-0.3,0-0.7,0-1c0-0.3,0-0.6,0-0.9   c0-0.2-0.1-0.4-0.1-0.6v-0.2c-0.1-0.3-0.1-0.6-0.1-0.9c0-0.4,0-0.8,0-1.1c0-0.2,0-0.4,0-0.6v-1.2c0-0.2,0-0.4,0.1-0.6   c0-0.1,0-0.1,0.1-0.1c0-0.1,0.1-0.3,0.3-0.3c0.3,0,0.5,0,0.8,0c0.2,0,0.4,0,0.6,0c0.1,0,0.1,0,0.2,0.1c0.1,0,0.2,0.1,0.3,0.2   l0.2,0.5c0,0.2,0.1,0.3,0.1,0.5c0.1,0.3,0.1,0.7,0.1,1c0,0.3,0,0.7,0,1c0,0.2,0,0.4,0,0.5c0,0.2,0,0.3,0,0.5c0,0.8,0,1.5,0,2.3   l0,0.6c0.1,0.2,0.2,0.5,0.2,0.7l0.2,0.6c0.1,0.2,0.1,0.4,0.2,0.6c0.1,0.2,0.2,0.3,0.2,0.5c0.1,0.1,0.2,0.3,0.1,0.4   c-0.2,0.1-0.3,0.3-0.4,0.5c-0.1,0.2-0.3,0.4-0.3,0.6l0,0.2l0,0.5c0,0.3,0.1,0.5,0.1,0.8v2.4l0.1,0.6c0.1,0.2,0.1,0.4,0.1,0.7   c0.1,0.1,0.1,0.3,0.1,0.4c0,0.1,0,0.2,0.1,0.3c0,0.1,0.1,0.1,0.1,0.1c0.1,0.1,0.1,0.1,0.1,0.2c0,0,0.1,0.1,0.1,0.1   c0.1,0.1,0.3,0.1,0.4,0.1h0.3c0.2,0,0.4-0.1,0.7-0.1c0.2,0,0.4-0.1,0.6-0.1c0.1,0,0.2-0.1,0.3-0.1c0-0.1,0.1-0.3,0.1-0.5   c0-0.1,0-0.1,0-0.2v-0.4l0-0.1l0-0.2c-0.1-0.2-0.1-0.4-0.1-0.6c0-0.2,0-0.4,0.1-0.6c0-0.1,0-0.2,0-0.3v0c0-0.1,0-0.2,0-0.3   c0,0,0,0,0,0v-0.1c0-0.1,0-0.3,0.1-0.4c0-0.1,0-0.2,0-0.3c0,0,0-0.1,0-0.1c0,0,0-0.1,0-0.1l0-0.3l0-0.1c-0.1-0.3-0.1-0.6-0.1-0.9   c0-0.3-0.1-0.6-0.2-1c-0.1-0.2-0.2-0.5-0.3-0.7c-0.1,0-0.1-0.1-0.2-0.1c0,0,0-0.1,0-0.1c0.1-0.1,0.3-0.3,0.3-0.5   c0.1-0.1,0.1-0.3,0.2-0.5c0-0.3,0.1-0.6,0.2-0.9c0-0.3,0-0.7-0.1-1c0-0.4,0-0.9,0-1.3c0-0.4,0-0.9,0.1-1.3c0-0.4,0-0.8,0.1-1.3   v-0.9c0-0.1,0.1-0.2,0.1-0.3c0-0.2,0-0.5,0-0.7c0-0.2,0-0.3-0.1-0.5c0-0.1,0-0.2,0-0.3c0-0.1,0-0.2,0-0.2c0.1-0.2,0.3-0.2,0.4-0.1   c0,0,0.1,0,0.1,0h0.1l0.3,0h0.2c0.1,0,0.1,0,0.1,0c0.1,0,0.2,0,0.4,0c0,0,0,0,0.1,0c0.1-0.1,0.2-0.1,0.3-0.1c0.2,0,0.5,0,0.5,0.3   v0.1c0.1,0.2,0.1,0.5,0.1,0.8c0,0.1,0,0.3-0.1,0.4c0,0.2,0,0.3,0,0.4c0,0.6,0,1.1,0,1.7c0,0.4,0,0.9,0,1.3c0,0.4,0,0.9,0,1.3   c0,0.1,0.1,0.2,0.1,0.4v0.3c0,0.2,0,0.4,0,0.6l0,0.4c0,0.1,0,0.2,0.1,0.3c0.1,0.3,0.2,0.5,0.3,0.8C74.8,25.6,74.9,25.8,75,26L75,26   z M67.8,26.2c0.1-0.2,0.1-0.5,0-0.7c0-0.2-0.1-0.4-0.2-0.6c0,0-0.1-0.1-0.1-0.1c-0.2-0.1-0.3-0.1-0.5,0c-0.1,0-0.1,0-0.2,0.1   c-0.2,0.1-0.2,0.4-0.2,0.6c0,0.4-0.1,0.9,0.3,1.1c0.2,0.1,0.4,0.1,0.5,0C67.6,26.5,67.7,26.4,67.8,26.2L67.8,26.2z M71.5,10.4   c0.2,0,0.3,0,0.5,0.1c0.1,0,0.2,0.1,0.2,0.1c0.1,0,0.1,0.1,0.2,0.1c0.1,0,0.3,0.1,0.4,0.2c0.1,0.2,0,0.3-0.1,0.4l-0.2,0.2   c-0.3,0.5-0.6,0.9-0.9,1.4l-0.5,0.7c-0.1,0.2-0.3,0.5-0.4,0.7c0,0.1,0,0.2-0.1,0.2c-0.1,0.1-0.1,0.1-0.1,0.2c0,0.1,0,0.2-0.1,0.2   c0,0.1-0.1,0.2-0.2,0.2c-0.3,0-0.5-0.1-0.8-0.2l-0.1-0.1L69,14.7l-0.3-0.1c-0.1,0-0.2,0-0.2-0.1c-0.2-0.3,0.1-0.5,0.2-0.7   c0.1-0.1,0.2-0.3,0.3-0.4c0.2-0.3,0.4-0.5,0.5-0.8c0.3-0.5,0.8-0.9,1-1.5c0-0.1,0.1-0.1,0.2-0.2C71,10.7,71.1,10.4,71.5,10.4   L71.5,10.4z M73.5,26.6c0.2-0.2,0.2-0.4,0.1-0.7l0-0.3c0-0.1,0-0.2,0-0.3c-0.1-0.2-0.2-0.2-0.4-0.2c-0.2-0.1-0.3,0-0.5,0.1   c-0.2,0.2-0.2,0.4-0.2,0.7l0,0.2c0,0.2,0,0.4,0.1,0.5c0.1,0.2,0.2,0.3,0.4,0.4C73.2,27,73.4,26.8,73.5,26.6L73.5,26.6z"></path>
	<path class="st1" d="M82,25.6c-0.1,0.2-0.1,0.4-0.1,0.6c0,0,0,0,0,0c0,0,0,0,0,0c0,0,0,0,0,0c0,0-0.1-0.1-0.2-0.1   c-0.1-0.1-0.2-0.1-0.3-0.2c-0.1-0.2-0.1-0.4,0-0.5c0.1-0.2,0.4-0.4,0.7-0.4c0.2,0,0.4,0.1,0.5,0.2c0,0,0,0,0,0c0,0,0,0,0,0   C82.6,25.3,82.2,25.3,82,25.6 M81.7,26.5C81.7,26.5,81.7,26.5,81.7,26.5c1.2-0.6,1.2-1.5,1.2-1.5c0,0,0,0,0,0c0,0,0,0,0,0v0   c0,0,0.1,0.1,0.2,0.2c0.1,0.1,0.2,0.2,0.2,0.3c0.1,0.2,0,0.4-0.1,0.5c-0.2,0.5-0.5,0.7-0.9,0.7c-0.1,0-0.2-0.1-0.4-0.1   C81.9,26.6,81.8,26.5,81.7,26.5L81.7,26.5C81.7,26.5,81.7,26.5,81.7,26.5 M83.5,25.7L83.5,25.7C83.6,25.7,83.6,25.7,83.5,25.7   C84,24.7,83,24,83,24c-0.3-0.2-0.6-0.3-0.9-0.3c-0.7,0-1.1,0.5-1.2,0.5c0,0,0,0,0,0c0,0,0,0,0,0C83.3,24.6,83.5,25.6,83.5,25.7   C83.5,25.6,83.5,25.7,83.5,25.7 M79.6,25.7c0,0.2,0.1,0.5,0.2,0.7c0,0,0,0,0,0.1c0,0,0.1,0.1,0.1,0.2c0,0,0,0,0,0c0,0,0,0,0,0   c0,0,0,0,0,0c0.8-1.9,1.7-2,1.7-2c0,0,0,0,0,0c0,0,0,0,0,0c-0.1-0.2-0.4-0.3-0.6-0.3c-0.2,0-0.6,0.1-0.8,0.2   C79.9,24.8,79.6,25.2,79.6,25.7 M82.6,27.8c0.4,0,0.8-0.1,0.8-0.2c1.1-0.5,0.8-1.7,0.8-1.7c0,0,0,0,0,0c0,0,0,0,0,0   c-0.3,0.6-1.2,1.2-1.9,1.2h0c-0.5,0-0.6-0.1-0.6-0.1c0,0,0,0-0.1,0c0,0,0,0,0,0.1v0C81.6,27.5,82,27.8,82.6,27.8 M85.7,24.1   c0,0-0.1-0.1-0.2-0.2c-0.1-0.1-0.2-0.1-0.2-0.1c0,0,0,0,0,0c0,0,0,0,0,0c0.1,0.5,0.1,1,0,1.4c-0.2,1-0.6,1.8-1.4,2.4   c0,0-0.1,0.1-0.1,0.1c-0.2,0.2-0.5,0.5-0.7,0.5c0,0,0,0,0,0c0,0,0,0-0.1,0c0,0,0,0,0,0.1c0.2,0.1,0.5,0.1,0.8,0.1   c0.2,0,0.4,0,0.5-0.1c0.5-0.1,1-0.5,1.4-1c0.4-0.5,0.5-1.2,0.5-1.8C86.3,24.9,86.1,24.4,85.7,24.1 M85.4,28.1   C85.4,28.1,85.4,28.1,85.4,28.1c-0.1,0-1.1,0.7-2.1,0.7c-0.1,0-0.2,0-0.3,0c0,0-1.9-0.2-2.7-1.2c0,0,0,0,0,0c0,0,0,0,0,0   c0,0,0,0.5,0.4,1c0.3,0.5,1,1.1,2.3,1.2h0C82.9,29.9,85.2,29.8,85.4,28.1C85.4,28.1,85.4,28.1,85.4,28.1 M79.7,27.7   c0,0-0.6-1.5-0.3-2.4c0,0,0,0,0,0c0,0,0,0,0,0c0,0-1.5,1.1-0.8,2.9c0,0,0.8,1.8,2.5,1.8c0.1,0,0.3,0,0.5,0c0,0,0,0,0,0c0,0,0,0,0,0   C81.6,29.9,80.2,28.6,79.7,27.7 M81.1,28.1c0.2,0.1,0.3,0.1,0.5,0.1h0c0,0,0,0,0.1,0c0,0,0.1,0,0.2,0c0,0,0,0,0,0c0,0,0,0,0,0   c0,0,0,0,0,0c-1.3-1.5-0.9-2.4-0.8-2.5c0,0,0,0,0,0c0,0,0,0,0,0c-0.5,0.1-0.7,0.7-0.7,1.3C80.3,27.4,80.6,27.9,81.1,28.1    M78.4,26.4C78.4,26.4,78.4,26.4,78.4,26.4C78.5,26.4,78.5,26.4,78.4,26.4c0.1,0,0.8-1.6,1.7-2c0,0,0,0,0,0c0,0,1.4-1,2.3-1   c0.1,0,0.1,0,0.2,0h0c0,0,0,0,0,0c0,0,0,0,0,0c0,0-0.1-0.1-0.2-0.1c0,0-0.1,0-0.1-0.1c-0.3-0.1-0.6-0.2-0.9-0.2c-0.1,0-0.2,0-0.3,0   c-0.7,0-1.5,0.2-2,0.6c-0.4,0.3-0.7,0.8-0.9,1.3c-0.1,0.3-0.1,0.5-0.1,0.8c0,0.1,0.1,0.2,0.2,0.4C78.3,26.2,78.4,26.3,78.4,26.4   C78.4,26.4,78.4,26.4,78.4,26.4 M81.1,22.3c0,0,0.8,0.2,1.6,0.8c0.7,0.5,1.6,1.5,1.6,3.1c0,0,0,0,0,0c0,0,0.2-0.1,0.2-0.1   c0.1-0.1,0.3-0.3,0.3-0.5c0.3-0.6,0.2-1.6-0.1-2.2c-0.3-0.7-1.6-1.6-2.6-1.6C81.7,21.8,81.4,21.9,81.1,22.3   C81.1,22.3,81.1,22.3,81.1,22.3C81.1,22.3,81.1,22.3,81.1,22.3"></path>
	<path class="st2" d="M93.5,25.3c0.2-0.1,0.3-0.2,0.5-0.3c0.1-0.1,0.2-0.1,0.3,0.1c0.1,0.2,0.2,0.4,0.2,0.6c0,0.4-0.1,0.8-0.4,1.1   c-0.2,0.2-0.3,0.4-0.5,0.5c-0.1,0.1-0.1,0.3-0.1,0.4c0,0.1,0,0.1,0.1,0.2c0.1,0.2,0,0.4-0.1,0.6c0,0,0,0.1,0,0.1   c0.2,0.5,0.2,1-0.1,1.5c-0.2,0.5-0.6,0.9-1,1.3c-0.6,0.6-1.4,1.1-2.2,1.5c-0.4,0.2-0.8,0.3-1.2,0.4c-0.9,0.2-1.9,0.3-2.8,0.4   c-0.6,0.1-1.3,0.1-1.9,0.2c-0.5,0.1-0.9,0.1-1.4,0.3c-0.5,0.2-0.9,0.5-1.3,0.8c0,0-0.1,0-0.1,0.1c-0.1,0.1-0.2,0.1-0.3,0   c-0.1-0.1-0.1-0.2-0.1-0.3c0.1-0.4,0.4-0.7,0.6-1.1c0.4-0.5,0.9-0.9,1.6-1.1c0.5-0.2,1.1-0.4,1.6-0.5c0.6-0.2,1.3-0.4,1.9-0.7   c0.6-0.3,1.1-0.7,1.5-1.2c0.4-0.5,0.7-1,1.1-1.5c0.3-0.4,0.6-0.8,0.9-1.1c0.4-0.3,0.9-0.5,1.5-0.4c0,0,0.1,0,0.1,0   c0.2-0.1,0.4-0.2,0.7-0.1c0.2,0.1,0.4,0,0.6-0.1c0.2-0.2,0.4-0.4,0.6-0.6C94,25.9,93.9,25.6,93.5,25.3   C93.6,25.4,93.5,25.4,93.5,25.3 M91.9,28c-0.1-0.1-0.3-0.2-0.5-0.2c-0.5,0-0.8,0.1-1.1,0.5c-0.2,0.3-0.4,0.6-0.6,1   c-0.2,0.4-0.4,0.7-0.7,1.1c-0.3,0.4-0.7,0.7-1.1,1c-0.5,0.3-1,0.6-1.5,0.8c-0.2,0.1-0.3,0.1-0.5,0.2c0,0.1,0,0.1,0.1,0   c0.5-0.2,1-0.4,1.5-0.6c0.3-0.2,0.6-0.3,0.9-0.5c0.5-0.4,0.9-0.8,1.3-1.3c0.3-0.4,0.6-0.9,1-1.3c0.2-0.3,0.5-0.5,0.8-0.5   C91.7,27.9,91.8,27.9,91.9,28 M81.9,34.2c0.5-0.4,1-0.7,1.5-1.1C82.7,33.2,82.2,33.6,81.9,34.2"></path>
	<path class="st1" d="M18.6,25.3C18.5,25.3,18.5,25.3,18.6,25.3C18.5,25.2,18.5,25.2,18.6,25.3c0.1-0.2,0.3-0.3,0.5-0.3   c0.3,0,0.6,0.1,0.7,0.4c0.1,0.1,0.1,0.3,0,0.5c0,0.1-0.1,0.1-0.3,0.2c-0.1,0-0.2,0.1-0.2,0.1c0,0,0,0,0,0c0,0,0,0,0,0c0,0,0,0,0,0   c0-0.2,0-0.4-0.1-0.6C18.9,25.3,18.6,25.3,18.6,25.3 M19.4,26.5L19.4,26.5c0,0-0.2,0.1-0.3,0.1c-0.2,0.1-0.3,0.1-0.4,0.1   c-0.4,0-0.7-0.3-0.9-0.7c-0.1-0.2-0.1-0.3-0.1-0.5c0-0.1,0.1-0.2,0.2-0.3c0.1-0.1,0.2-0.2,0.2-0.2v0c0,0,0,0,0,0c0,0,0,0,0,0   C18.2,25,18.2,25.9,19.4,26.5C19.4,26.5,19.4,26.5,19.4,26.5C19.4,26.5,19.4,26.5,19.4,26.5 M17.6,25.6c0,0,0.2-1,2.6-1.4   c0,0,0,0,0,0c0,0,0,0,0,0c0,0-0.5-0.5-1.2-0.5c-0.3,0-0.6,0.1-0.9,0.3C18.1,24,17.1,24.7,17.6,25.6C17.5,25.7,17.6,25.7,17.6,25.6   L17.6,25.6C17.6,25.7,17.6,25.6,17.6,25.6 M20.8,24.6c-0.3-0.1-0.6-0.2-0.8-0.2c-0.3,0-0.5,0.1-0.6,0.3c0,0,0,0,0,0c0,0,0,0,0,0   c0,0,0.9,0.1,1.7,2c0,0,0,0,0,0c0,0,0,0,0,0c0,0,0,0,0,0c0,0,0.1-0.1,0.1-0.2c0,0,0-0.1,0-0.1c0.1-0.2,0.2-0.5,0.2-0.7   C21.5,25.2,21.3,24.8,20.8,24.6 M18.6,27.8c0.6,0,1-0.3,1.1-0.7v0c0,0,0,0,0-0.1c0,0,0,0-0.1,0c0,0-0.2,0.1-0.6,0.1h0   c-0.7,0-1.6-0.6-1.9-1.2c0,0,0,0,0,0c0,0,0,0,0,0c0,0-0.3,1.3,0.8,1.7C17.8,27.6,18.1,27.8,18.6,27.8 M14.9,25.5   c0,0.6,0.1,1.3,0.5,1.8c0.5,0.6,1,0.9,1.4,1c0.2,0,0.3,0.1,0.5,0.1c0.3,0,0.5,0,0.8-0.1c0,0,0,0,0-0.1c0,0,0,0-0.1,0c0,0,0,0,0,0   c-0.2,0-0.5-0.3-0.7-0.5c0,0-0.1-0.1-0.1-0.1c-0.8-0.7-1.2-1.5-1.4-2.4c-0.1-0.4-0.1-0.9,0-1.4c0,0,0,0,0,0c0,0,0,0,0,0   c0,0-0.1,0.1-0.2,0.1c-0.1,0.1-0.2,0.1-0.2,0.2C15,24.4,14.8,24.9,14.9,25.5 M15.7,28.1c0.2,1.7,2.6,1.7,2.6,1.7h0   c1.4-0.1,2-0.7,2.3-1.2c0.3-0.5,0.4-1,0.4-1c0,0,0,0,0,0c0,0,0,0,0,0c-0.9,1-2.7,1.2-2.7,1.2c-0.1,0-0.2,0-0.3,0   C16.9,28.8,15.8,28.1,15.7,28.1C15.7,28.1,15.7,28.1,15.7,28.1C15.7,28.1,15.7,28.1,15.7,28.1 M19.5,29.9   C19.5,29.9,19.5,29.9,19.5,29.9C19.5,29.9,19.5,29.9,19.5,29.9C19.7,30,19.9,30,20,30c1.8,0,2.5-1.8,2.5-1.8   c0.7-1.8-0.8-2.9-0.8-2.9c0,0,0,0,0,0c0,0,0,0,0,0c0.3,0.9-0.3,2.4-0.3,2.4C20.9,28.6,19.5,29.9,19.5,29.9 M20.8,26.9   c0-0.5-0.2-1.2-0.7-1.3c0,0,0,0,0,0c0,0,0,0,0,0c0,0,0.5,0.9-0.8,2.5c0,0,0,0,0,0c0,0,0,0,0,0c0,0,0,0,0,0c0,0,0.1,0,0.2,0   c0,0,0.1,0,0.1,0h0c0.2,0,0.4,0,0.5-0.1C20.5,27.9,20.8,27.4,20.8,26.9 M22.7,26.4c0,0,0.1-0.2,0.1-0.3c0.1-0.2,0.2-0.4,0.2-0.4   c0-0.2,0-0.5-0.1-0.8c-0.2-0.5-0.5-1-0.9-1.3c-0.5-0.4-1.2-0.6-2-0.6c-0.1,0-0.2,0-0.3,0c-0.3,0-0.6,0.1-0.9,0.2c0,0-0.1,0-0.1,0.1   c-0.1,0-0.1,0.1-0.2,0.1c0,0,0,0,0,0c0,0,0,0,0,0h0c0,0,0.1,0,0.2,0c0.9,0,2.3,1,2.3,1c0,0,0,0,0,0C21.9,24.8,22.6,26.4,22.7,26.4   C22.7,26.4,22.7,26.4,22.7,26.4C22.7,26.4,22.7,26.4,22.7,26.4C22.7,26.4,22.7,26.4,22.7,26.4 M20,22.3C20,22.3,20,22.3,20,22.3   c-0.3-0.4-0.6-0.5-1.1-0.5c-1,0-2.3,0.9-2.6,1.6C16,24,15.9,25,16.2,25.6c0.1,0.2,0.2,0.4,0.3,0.5c0,0,0.1,0.1,0.2,0.1c0,0,0,0,0,0   c0-1.6,0.9-2.6,1.6-3.1C19.2,22.5,20,22.3,20,22.3C20,22.3,20,22.3,20,22.3"></path>
	<path class="st2" d="M7.5,25.4c-0.3,0.2-0.4,0.5-0.2,0.9c0.1,0.3,0.3,0.4,0.6,0.6C8.1,27,8.3,27.1,8.5,27c0.2-0.1,0.5,0,0.7,0.1   c0,0,0.1,0,0.1,0c0.6-0.1,1.1,0,1.5,0.4c0.4,0.3,0.7,0.7,0.9,1.1c0.4,0.5,0.7,1,1.1,1.5c0.4,0.5,0.9,0.9,1.5,1.2   c0.6,0.3,1.2,0.5,1.9,0.7c0.5,0.2,1.1,0.4,1.6,0.5c0.6,0.2,1.2,0.6,1.6,1.1c0.3,0.3,0.5,0.7,0.6,1.1c0,0.1,0,0.2-0.1,0.3   c-0.1,0.1-0.2,0.1-0.3,0c0,0-0.1,0-0.1-0.1c-0.4-0.3-0.8-0.6-1.3-0.8c-0.4-0.2-0.9-0.3-1.4-0.3c-0.6-0.1-1.3-0.1-1.9-0.2   c-0.9-0.1-1.9-0.2-2.8-0.4c-0.4-0.1-0.8-0.2-1.2-0.4c-0.8-0.4-1.6-0.9-2.2-1.5c-0.4-0.4-0.7-0.8-1-1.3c-0.2-0.5-0.3-1-0.1-1.5   c0,0,0-0.1,0-0.1c-0.1-0.2-0.2-0.4-0.1-0.6c0-0.1,0-0.1,0.1-0.2c0.1-0.2,0-0.3-0.1-0.4C7.4,27.1,7.2,27,7,26.8   c-0.3-0.3-0.4-0.7-0.4-1.1c0-0.2,0.1-0.4,0.2-0.6C6.9,25,7,24.9,7.2,25C7.3,25.1,7.5,25.2,7.5,25.4C7.6,25.4,7.6,25.4,7.5,25.4    M9.6,27.9c0.4,0,0.6,0.2,0.8,0.5c0.3,0.4,0.6,0.9,1,1.3c0.4,0.5,0.8,0.9,1.3,1.3c0.3,0.2,0.6,0.4,0.9,0.5c0.5,0.2,1,0.4,1.5,0.6   c0.1,0,0.1,0,0.1,0C15,32.1,14.9,32,14.7,32c-0.5-0.2-1-0.5-1.5-0.8c-0.4-0.3-0.8-0.6-1.1-1c-0.3-0.3-0.5-0.7-0.7-1.1   c-0.2-0.3-0.4-0.7-0.6-1c-0.3-0.4-0.7-0.5-1.1-0.5c-0.2,0-0.3,0.1-0.5,0.2C9.3,27.9,9.5,27.9,9.6,27.9 M17.8,33.1   c0.5,0.3,1,0.7,1.5,1.1C18.9,33.6,18.4,33.2,17.8,33.1"></path>
	<g>
		<rect x="85.5" y="42.6" class="st2" width="0.8" height="0.8"></rect>
		<rect x="86.4" y="41.8" class="st2" width="0.8" height="0.8"></rect>
		<rect x="87.2" y="41" class="st2" width="0.8" height="0.8"></rect>
		<rect x="65" y="43.4" class="st2" width="0.8" height="0.8"></rect>
		<rect x="64.1" y="42.6" class="st2" width="0.8" height="0.8"></rect>
		<rect x="63.3" y="41.8" class="st2" width="0.8" height="0.8"></rect>
		<rect x="60" y="43.4" class="st2" width="0.8" height="0.8"></rect>
		<rect x="60.8" y="42.6" class="st2" width="0.8" height="0.8"></rect>
		<rect x="61.7" y="41.8" class="st2" width="0.8" height="0.8"></rect>
		<rect x="62.5" y="41" class="st2" width="0.8" height="0.8"></rect>
		<rect x="65.8" y="42.6" class="st2" width="0.8" height="0.8"></rect>
		<rect x="66.6" y="41.8" class="st2" width="0.8" height="0.8"></rect>
		<rect x="67.4" y="41" class="st2" width="0.8" height="0.8"></rect>
		<rect x="59.2" y="42.6" class="st2" width="0.8" height="0.8"></rect>
		<rect x="58.4" y="41.8" class="st2" width="0.8" height="0.8"></rect>
		<rect x="74.8" y="43.4" class="st2" width="0.8" height="0.8"></rect>
		<rect x="74" y="42.6" class="st2" width="0.8" height="0.8"></rect>
		<rect x="73.2" y="41.8" class="st2" width="0.8" height="0.8"></rect>
		<rect x="69.9" y="43.4" class="st2" width="0.8" height="0.8"></rect>
		<rect x="70.7" y="42.6" class="st2" width="0.8" height="0.8"></rect>
		<rect x="71.5" y="41.8" class="st2" width="0.8" height="0.8"></rect>
		<rect x="72.4" y="41" class="st2" width="0.8" height="0.8"></rect>
		<rect x="75.7" y="42.6" class="st2" width="0.8" height="0.8"></rect>
		<rect x="76.5" y="41.8" class="st2" width="0.8" height="0.8"></rect>
		<rect x="77.3" y="41" class="st2" width="0.8" height="0.8"></rect>
		<rect x="69.1" y="42.6" class="st2" width="0.8" height="0.8"></rect>
		<rect x="68.3" y="41.8" class="st2" width="0.8" height="0.8"></rect>
		<rect x="84.7" y="43.4" class="st2" width="0.8" height="0.8"></rect>
		<rect x="83.9" y="42.6" class="st2" width="0.8" height="0.8"></rect>
		<rect x="83.1" y="41.8" class="st2" width="0.8" height="0.8"></rect>
		<rect x="79.8" y="43.4" class="st2" width="0.8" height="0.8"></rect>
		<rect x="80.6" y="42.6" class="st2" width="0.8" height="0.8"></rect>
		<rect x="81.4" y="41.8" class="st2" width="0.8" height="0.8"></rect>
		<rect x="82.2" y="41" class="st2" width="0.8" height="0.8"></rect>
		<rect x="79" y="42.6" class="st2" width="0.8" height="0.8"></rect>
		<rect x="78.1" y="41.8" class="st2" width="0.8" height="0.8"></rect>
		<rect x="55.1" y="43.4" class="st2" width="0.8" height="0.8"></rect>
		<rect x="55.9" y="42.6" class="st2" width="0.8" height="0.8"></rect>
		<rect x="56.7" y="41.8" class="st2" width="0.8" height="0.8"></rect>
		<rect x="57.6" y="41" class="st2" width="0.8" height="0.8"></rect>
		<rect x="54.3" y="42.6" class="st2" width="0.8" height="0.8"></rect>
		<rect x="53.4" y="41.8" class="st2" width="0.8" height="0.8"></rect>
		<rect x="50.1" y="43.4" class="st2" width="0.8" height="0.8"></rect>
		<rect x="51" y="42.6" class="st2" width="0.8" height="0.8"></rect>
		<rect x="51.8" y="41.8" class="st2" width="0.8" height="0.8"></rect>
		<rect x="52.6" y="41" class="st2" width="0.8" height="0.8"></rect>
		<rect x="49.3" y="42.6" class="st2" width="0.8" height="0.8"></rect>
		<rect x="48.5" y="41.8" class="st2" width="0.8" height="0.8"></rect>
		<rect x="45.2" y="43.4" class="st2" width="0.8" height="0.8"></rect>
		<rect x="46" y="42.6" class="st2" width="0.8" height="0.8"></rect>
		<rect x="46.9" y="41.8" class="st2" width="0.8" height="0.8"></rect>
		<rect x="47.7" y="41" class="st2" width="0.8" height="0.8"></rect>
		<rect x="44.4" y="42.6" class="st2" width="0.8" height="0.8"></rect>
		<rect x="43.6" y="41.8" class="st2" width="0.8" height="0.8"></rect>
		<rect x="40.3" y="43.4" class="st2" width="0.8" height="0.8"></rect>
		<rect x="41.1" y="42.6" class="st2" width="0.8" height="0.8"></rect>
		<rect x="41.9" y="41.8" class="st2" width="0.8" height="0.8"></rect>
		<rect x="42.7" y="41" class="st2" width="0.8" height="0.8"></rect>
		<rect x="39.4" y="42.6" class="st2" width="0.8" height="0.8"></rect>
		<rect x="38.6" y="41.8" class="st2" width="0.8" height="0.8"></rect>
		<rect x="35.3" y="43.4" class="st2" width="0.8" height="0.8"></rect>
		<rect x="36.2" y="42.6" class="st2" width="0.8" height="0.8"></rect>
		<rect x="37" y="41.8" class="st2" width="0.8" height="0.8"></rect>
		<rect x="37.8" y="41" class="st2" width="0.8" height="0.8"></rect>
		<rect x="34.5" y="42.6" class="st2" width="0.8" height="0.8"></rect>
		<rect x="33.7" y="41.8" class="st2" width="0.8" height="0.8"></rect>
		<rect x="30.4" y="43.4" class="st2" width="0.8" height="0.8"></rect>
		<rect x="31.2" y="42.6" class="st2" width="0.8" height="0.8"></rect>
		<rect x="32" y="41.8" class="st2" width="0.8" height="0.8"></rect>
		<rect x="32.9" y="41" class="st2" width="0.8" height="0.8"></rect>
		<rect x="29.6" y="42.6" class="st2" width="0.8" height="0.8"></rect>
		<rect x="28.8" y="41.8" class="st2" width="0.8" height="0.8"></rect>
		<rect x="25.5" y="43.4" class="st2" width="0.8" height="0.8"></rect>
		<rect x="26.3" y="42.6" class="st2" width="0.8" height="0.8"></rect>
		<rect x="27.1" y="41.8" class="st2" width="0.8" height="0.8"></rect>
		<rect x="27.9" y="41" class="st2" width="0.8" height="0.8"></rect>
		<rect x="24.6" y="42.6" class="st2" width="0.8" height="0.8"></rect>
		<rect x="23.8" y="41.8" class="st2" width="0.8" height="0.8"></rect>
		<rect x="20.5" y="43.4" class="st2" width="0.8" height="0.8"></rect>
		<rect x="21.3" y="42.6" class="st2" width="0.8" height="0.8"></rect>
		<rect x="22.2" y="41.8" class="st2" width="0.8" height="0.8"></rect>
		<rect x="23" y="41" class="st2" width="0.8" height="0.8"></rect>
		<rect x="19.7" y="42.6" class="st2" width="0.8" height="0.8"></rect>
		<rect x="18.9" y="41.8" class="st2" width="0.8" height="0.8"></rect>
		<rect x="15.6" y="43.4" class="st2" width="0.8" height="0.8"></rect>
		<rect x="16.4" y="42.6" class="st2" width="0.8" height="0.8"></rect>
		<rect x="17.2" y="41.8" class="st2" width="0.8" height="0.8"></rect>
		<rect x="18.1" y="41" class="st2" width="0.8" height="0.8"></rect>
		<rect x="14.8" y="42.6" class="st2" width="0.8" height="0.8"></rect>
		<rect x="13.9" y="41.8" class="st2" width="0.8" height="0.8"></rect>
		<rect x="13.1" y="41" class="st2" width="0.8" height="0.8"></rect>
		<rect x="18" y="44" transform="matrix(0.7071 -0.7071 0.7071 0.7071 -26.032 26.1084)" class="st2" width="0.9" height="0.9"></rect>
		<rect x="22.9" y="44" transform="matrix(0.7071 -0.7071 0.7071 0.7071 -24.5968 29.5734)" class="st2" width="0.9" height="0.9"></rect>
		<rect x="27.8" y="44" transform="matrix(0.7071 -0.7071 0.7071 0.7071 -23.1616 33.0384)" class="st2" width="0.9" height="0.9"></rect>
		<rect x="32.7" y="44" transform="matrix(0.7071 -0.7071 0.7071 0.7071 -21.7264 36.5034)" class="st2" width="0.9" height="0.9"></rect>
		<rect x="37.6" y="44" transform="matrix(0.7071 -0.7071 0.7071 0.7071 -20.2911 39.9684)" class="st2" width="0.9" height="0.9"></rect>
		<rect x="42.5" y="44" transform="matrix(0.7071 -0.7071 0.7071 0.7071 -18.8559 43.4334)" class="st2" width="0.9" height="0.9"></rect>
		<rect x="47.4" y="44" transform="matrix(0.7071 -0.7071 0.7071 0.7071 -17.4207 46.8984)" class="st2" width="0.9" height="0.9"></rect>
		<rect x="52.3" y="44" transform="matrix(0.7071 -0.7071 0.7071 0.7071 -15.9854 50.3634)" class="st2" width="0.9" height="0.9"></rect>
		<rect x="57.2" y="44" transform="matrix(0.7071 -0.7071 0.7071 0.7071 -14.5502 53.8284)" class="st2" width="0.9" height="0.9"></rect>
		<rect x="62.1" y="44" transform="matrix(0.7071 -0.7071 0.7071 0.7071 -13.115 57.2934)" class="st2" width="0.9" height="0.9"></rect>
		<rect x="67" y="44" transform="matrix(0.7071 -0.7071 0.7071 0.7071 -11.6798 60.7583)" class="st2" width="0.9" height="0.9"></rect>
		<rect x="71.9" y="44" transform="matrix(0.7071 -0.7071 0.7071 0.7071 -10.2445 64.2233)" class="st2" width="0.9" height="0.9"></rect>
		<rect x="76.8" y="44" transform="matrix(0.7071 -0.7071 0.7071 0.7071 -8.8093 67.6883)" class="st2" width="0.9" height="0.9"></rect>
		<rect x="81.7" y="44" transform="matrix(0.7071 -0.7071 0.7071 0.7071 -7.3741 71.1533)" class="st2" width="0.9" height="0.9"></rect>
	</g>
	<g>
		<rect x="84.5" y="6.7" class="st2" width="0.8" height="0.8"></rect>
		<rect x="85.4" y="7.5" class="st2" width="0.8" height="0.8"></rect>
		<rect x="86.2" y="8.3" class="st2" width="0.8" height="0.8"></rect>
		<rect x="64" y="5.8" class="st2" width="0.8" height="0.8"></rect>
		<rect x="63.1" y="6.7" class="st2" width="0.8" height="0.8"></rect>
		<rect x="62.3" y="7.5" class="st2" width="0.8" height="0.8"></rect>
		<rect x="59" y="5.8" class="st2" width="0.8" height="0.8"></rect>
		<rect x="59.8" y="6.7" class="st2" width="0.8" height="0.8"></rect>
		<rect x="60.7" y="7.5" class="st2" width="0.8" height="0.8"></rect>
		<rect x="61.5" y="8.3" class="st2" width="0.8" height="0.8"></rect>
		<rect x="64.8" y="6.7" class="st2" width="0.8" height="0.8"></rect>
		<rect x="65.6" y="7.5" class="st2" width="0.8" height="0.8"></rect>
		<rect x="66.4" y="8.3" class="st2" width="0.8" height="0.8"></rect>
		<rect x="58.2" y="6.7" class="st2" width="0.8" height="0.8"></rect>
		<rect x="57.4" y="7.5" class="st2" width="0.8" height="0.8"></rect>
		<rect x="73.8" y="5.8" class="st2" width="0.8" height="0.8"></rect>
		<rect x="73" y="6.7" class="st2" width="0.8" height="0.8"></rect>
		<rect x="72.2" y="7.5" class="st2" width="0.8" height="0.8"></rect>
		<rect x="68.9" y="5.8" class="st2" width="0.8" height="0.8"></rect>
		<rect x="69.7" y="6.7" class="st2" width="0.8" height="0.8"></rect>
		<rect x="70.5" y="7.5" class="st2" width="0.8" height="0.8"></rect>
		<rect x="71.4" y="8.3" class="st2" width="0.8" height="0.8"></rect>
		<rect x="74.7" y="6.7" class="st2" width="0.8" height="0.8"></rect>
		<rect x="75.5" y="7.5" class="st2" width="0.8" height="0.8"></rect>
		<rect x="76.3" y="8.3" class="st2" width="0.8" height="0.8"></rect>
		<rect x="68.1" y="6.7" class="st2" width="0.8" height="0.8"></rect>
		<rect x="67.3" y="7.5" class="st2" width="0.8" height="0.8"></rect>
		<rect x="83.7" y="5.8" class="st2" width="0.8" height="0.8"></rect>
		<rect x="82.9" y="6.7" class="st2" width="0.8" height="0.8"></rect>
		<rect x="82.1" y="7.5" class="st2" width="0.8" height="0.8"></rect>
		<rect x="78.8" y="5.8" class="st2" width="0.8" height="0.8"></rect>
		<rect x="79.6" y="6.7" class="st2" width="0.8" height="0.8"></rect>
		<rect x="80.4" y="7.5" class="st2" width="0.8" height="0.8"></rect>
		<rect x="81.2" y="8.3" class="st2" width="0.8" height="0.8"></rect>
		<rect x="78" y="6.7" class="st2" width="0.8" height="0.8"></rect>
		<rect x="77.1" y="7.5" class="st2" width="0.8" height="0.8"></rect>
		<rect x="54.1" y="5.8" class="st2" width="0.8" height="0.8"></rect>
		<rect x="54.9" y="6.7" class="st2" width="0.8" height="0.8"></rect>
		<rect x="55.7" y="7.5" class="st2" width="0.8" height="0.8"></rect>
		<rect x="56.6" y="8.3" class="st2" width="0.8" height="0.8"></rect>
		<rect x="53.3" y="6.7" class="st2" width="0.8" height="0.8"></rect>
		<rect x="52.4" y="7.5" class="st2" width="0.8" height="0.8"></rect>
		<rect x="49.1" y="5.8" class="st2" width="0.8" height="0.8"></rect>
		<rect x="50" y="6.7" class="st2" width="0.8" height="0.8"></rect>
		<rect x="50.8" y="7.5" class="st2" width="0.8" height="0.8"></rect>
		<rect x="51.6" y="8.3" class="st2" width="0.8" height="0.8"></rect>
		<rect x="48.3" y="6.7" class="st2" width="0.8" height="0.8"></rect>
		<rect x="47.5" y="7.5" class="st2" width="0.8" height="0.8"></rect>
		<rect x="44.2" y="5.8" class="st2" width="0.8" height="0.8"></rect>
		<rect x="45" y="6.7" class="st2" width="0.8" height="0.8"></rect>
		<rect x="45.9" y="7.5" class="st2" width="0.8" height="0.8"></rect>
		<rect x="46.7" y="8.3" class="st2" width="0.8" height="0.8"></rect>
		<rect x="43.4" y="6.7" class="st2" width="0.8" height="0.8"></rect>
		<rect x="42.6" y="7.5" class="st2" width="0.8" height="0.8"></rect>
		<rect x="39.3" y="5.8" class="st2" width="0.8" height="0.8"></rect>
		<rect x="40.1" y="6.7" class="st2" width="0.8" height="0.8"></rect>
		<rect x="40.9" y="7.5" class="st2" width="0.8" height="0.8"></rect>
		<rect x="41.7" y="8.3" class="st2" width="0.8" height="0.8"></rect>
		<rect x="38.4" y="6.7" class="st2" width="0.8" height="0.8"></rect>
		<rect x="37.6" y="7.5" class="st2" width="0.8" height="0.8"></rect>
		<rect x="34.3" y="5.8" class="st2" width="0.8" height="0.8"></rect>
		<rect x="35.2" y="6.7" class="st2" width="0.8" height="0.8"></rect>
		<rect x="36" y="7.5" class="st2" width="0.8" height="0.8"></rect>
		<rect x="36.8" y="8.3" class="st2" width="0.8" height="0.8"></rect>
		<rect x="33.5" y="6.7" class="st2" width="0.8" height="0.8"></rect>
		<rect x="32.7" y="7.5" class="st2" width="0.8" height="0.8"></rect>
		<rect x="29.4" y="5.8" class="st2" width="0.8" height="0.8"></rect>
		<rect x="30.2" y="6.7" class="st2" width="0.8" height="0.8"></rect>
		<rect x="31" y="7.5" class="st2" width="0.8" height="0.8"></rect>
		<rect x="31.9" y="8.3" class="st2" width="0.8" height="0.8"></rect>
		<rect x="28.6" y="6.7" class="st2" width="0.8" height="0.8"></rect>
		<rect x="27.8" y="7.5" class="st2" width="0.8" height="0.8"></rect>
		<rect x="24.5" y="5.8" class="st2" width="0.8" height="0.8"></rect>
		<rect x="25.3" y="6.7" class="st2" width="0.8" height="0.8"></rect>
		<rect x="26.1" y="7.5" class="st2" width="0.8" height="0.8"></rect>
		<rect x="26.9" y="8.3" class="st2" width="0.8" height="0.8"></rect>
		<rect x="23.6" y="6.7" class="st2" width="0.8" height="0.8"></rect>
		<rect x="22.8" y="7.5" class="st2" width="0.8" height="0.8"></rect>
		<rect x="19.5" y="5.8" class="st2" width="0.8" height="0.8"></rect>
		<rect x="20.3" y="6.7" class="st2" width="0.8" height="0.8"></rect>
		<rect x="21.2" y="7.5" class="st2" width="0.8" height="0.8"></rect>
		<rect x="22" y="8.3" class="st2" width="0.8" height="0.8"></rect>
		<rect x="18.7" y="6.7" class="st2" width="0.8" height="0.8"></rect>
		<rect x="17.9" y="7.5" class="st2" width="0.8" height="0.8"></rect>
		<rect x="14.6" y="5.8" class="st2" width="0.8" height="0.8"></rect>
		<rect x="15.4" y="6.7" class="st2" width="0.8" height="0.8"></rect>
		<rect x="16.2" y="7.5" class="st2" width="0.8" height="0.8"></rect>
		<rect x="17.1" y="8.3" class="st2" width="0.8" height="0.8"></rect>
		<rect x="13.8" y="6.7" class="st2" width="0.8" height="0.8"></rect>
		<rect x="12.9" y="7.5" class="st2" width="0.8" height="0.8"></rect>
		<rect x="12.1" y="8.3" class="st2" width="0.8" height="0.8"></rect>
		<rect x="17" y="5.1" transform="matrix(0.7071 -0.7071 0.7071 0.7071 1.1645 14.0152)" class="st2" width="0.9" height="0.9"></rect>
		<rect x="21.9" y="5.1" transform="matrix(0.7071 -0.7071 0.7071 0.7071 2.5998 17.4802)" class="st2" width="0.9" height="0.9"></rect>
		<rect x="26.8" y="5.1" transform="matrix(0.7071 -0.7071 0.7071 0.7071 4.035 20.9452)" class="st2" width="0.9" height="0.9"></rect>
		<rect x="31.7" y="5.1" transform="matrix(0.7071 -0.7071 0.7071 0.7071 5.4703 24.4102)" class="st2" width="0.9" height="0.9"></rect>
		<rect x="36.6" y="5.1" transform="matrix(0.7071 -0.7071 0.7071 0.7071 6.9056 27.8753)" class="st2" width="0.9" height="0.9"></rect>
		<rect x="41.5" y="5.1" transform="matrix(0.7071 -0.7071 0.7071 0.7071 8.3408 31.3403)" class="st2" width="0.9" height="0.9"></rect>
		<rect x="46.4" y="5.1" transform="matrix(0.7071 -0.7071 0.7071 0.7071 9.7761 34.8053)" class="st2" width="0.9" height="0.9"></rect>
		<rect x="51.3" y="5.1" transform="matrix(0.7071 -0.7071 0.7071 0.7071 11.2113 38.2704)" class="st2" width="0.9" height="0.9"></rect>
		<rect x="56.2" y="5.1" transform="matrix(0.7071 -0.7071 0.7071 0.7071 12.6466 41.7354)" class="st2" width="0.9" height="0.9"></rect>
		<rect x="61.1" y="5.1" transform="matrix(0.7071 -0.7071 0.7071 0.7071 14.0818 45.2004)" class="st2" width="0.9" height="0.9"></rect>
		<rect x="66" y="5.1" transform="matrix(0.7071 -0.7071 0.7071 0.7071 15.5171 48.6654)" class="st2" width="0.9" height="0.9"></rect>
		<rect x="70.9" y="5.1" transform="matrix(0.7071 -0.7071 0.7071 0.7071 16.9524 52.1304)" class="st2" width="0.9" height="0.9"></rect>
		<rect x="75.8" y="5.1" transform="matrix(0.7071 -0.7071 0.7071 0.7071 18.3876 55.5955)" class="st2" width="0.9" height="0.9"></rect>
		<rect x="80.7" y="5.1" transform="matrix(0.7071 -0.7071 0.7071 0.7071 19.8229 59.0605)" class="st2" width="0.9" height="0.9"></rect>
	</g>
</g>
</svg>